HIERARCHY
ROOT root
{
	OFFSET	0	13.1	24.9
	CHANNELS 6  Xposition Yposition Zposition Xrotation Yrotation Zrotation
	JOINT spine_1
	{
		OFFSET	0	9.99999	0
		CHANNELS 3  Xrotation Yrotation Zrotation
		JOINT spine_2
		{
			OFFSET	0	112	-10
			CHANNELS 3  Xrotation Yrotation Zrotation
			JOINT spine_3
			{
				OFFSET	0	206.5	19.3
				CHANNELS 3  Xrotation Yrotation Zrotation
				JOINT spine_4
				{
					OFFSET	0	110.4	14.6
					CHANNELS 3  Xrotation Yrotation Zrotation
					JOINT neck_1
					{
						OFFSET	0	71.8	-50.3
						CHANNELS 3  Xrotation Yrotation Zrotation
						JOINT neck_2
						{
							OFFSET	0	86.2	-25.8
							CHANNELS 3  Xrotation Yrotation Zrotation
							JOINT head_ee
							{
								OFFSET	0	179.8	-8.7
								CHANNELS 3  Xrotation Yrotation Zrotation
								End Site
								{
									OFFSET	1	0	0
								}
							}
						}
					}
					JOINT left_clavicle
					{
						OFFSET	-43.2	22.4	-70.8
						CHANNELS 3  Xrotation Yrotation Zrotation
						JOINT left_shoulder
						{
							OFFSET	-93.9	-5.79999	48.7
							CHANNELS 3  Xrotation Yrotation Zrotation
							JOINT left_elbow
							{
								OFFSET	-291.4	-30.8	15.2
								CHANNELS 3  Xrotation Yrotation Zrotation
								JOINT left_lowarm_twist
								{
									OFFSET	-110.7	-3.89999	13.6
									CHANNELS 3  Xrotation Yrotation Zrotation
									JOINT left_hand
									{
										OFFSET	-110.7	-3.89999	13.6
										CHANNELS 3  Xrotation Yrotation Zrotation
										JOINT left_ee
										{
											OFFSET	-80.8	-5.10001	12.1
											CHANNELS 3  Xrotation Yrotation Zrotation
											End Site
											{
												OFFSET	1	0	0
											}
										}
									}
								}
							}
						}
					}
					JOINT right_clavicle
					{
						OFFSET	43.2	22.4	-70.8
						CHANNELS 3  Xrotation Yrotation Zrotation
						JOINT right_shoulder
						{
							OFFSET	93.9	-5.79999	48.7
							CHANNELS 3  Xrotation Yrotation Zrotation
							JOINT right_elbow
							{
								OFFSET	291.4	-30.8	15.2
								CHANNELS 3  Xrotation Yrotation Zrotation
								JOINT right_lowarm_twist
								{
									OFFSET	110.7	-3.89999	13.6
									CHANNELS 3  Xrotation Yrotation Zrotation
									JOINT right_hand
									{
										OFFSET	110.7	-3.89999	13.6
										CHANNELS 3  Xrotation Yrotation Zrotation
										JOINT right_ee
										{
											OFFSET	80.8	-5.10001	12.1
											CHANNELS 3  Xrotation Yrotation Zrotation
											End Site
											{
												OFFSET	1	0	0
											}
										}
									}
								}
							}
						}
					}
				}
			}
		}
	}
	JOINT left_hip
	{
		OFFSET	-82.8	-127.5	0.300001
		CHANNELS 3  Xrotation Yrotation Zrotation
		JOINT left_knee
		{
			OFFSET	-28.2	-396.7	2.2
			CHANNELS 3  Xrotation Yrotation Zrotation
			JOINT left_ankle
			{
				OFFSET	-11.7	-411.3	35.4
				CHANNELS 3  Xrotation Yrotation Zrotation
				JOINT left_toes
				{
					OFFSET	0	-60	-88.6
					CHANNELS 3  Xrotation Yrotation Zrotation
					JOINT left_foot_ee
					{
						OFFSET	-22.5	-16.5	-42.2
						CHANNELS 3  Xrotation Yrotation Zrotation
						End Site
						{
							OFFSET	1	0	0
						}
					}
				}
			}
		}
	}
	JOINT right_hip
	{
		OFFSET	82.8	-127.5	0.300001
		CHANNELS 3  Xrotation Yrotation Zrotation
		JOINT right_knee
		{
			OFFSET	28.2	-396.7	2.2
			CHANNELS 3  Xrotation Yrotation Zrotation
			JOINT right_ankle
			{
				OFFSET	11.7	-411.3	35.4
				CHANNELS 3  Xrotation Yrotation Zrotation
				JOINT right_toes
				{
					OFFSET	0	-60	-88.6
					CHANNELS 3  Xrotation Yrotation Zrotation
					JOINT right_foot_ee
					{
						OFFSET	22.5	-16.5	-42.2
						CHANNELS 3  Xrotation Yrotation Zrotation
						End Site
						{
							OFFSET	1	0	0
						}
					}
				}
			}
		}
	}
}
MOTION
Frames: 6
Frame Time: 0.02
1372.05 701.618 -1475.22 -7.0525786571 71.4846587988 9.78920120922 1.52599 -0.434283 -2.8014 1.53032 -0.255216 -2.82333 1.54338 0.26808 -2.82214 1.53231 -0.180805 -2.82907 -13.405 11.3628 9.81422 -13.295 15.5762 12.761 -0.0 0.0 -0.0 9.97948 13.2609 18.4296 14.1308 -27.4174 65.9712 2.78334 -54.0375 1.41953 -11.071 -0.518922 1.31471 -2.53203 12.6337 -10.8214 -0.0 0.0 -0.0 7.9172 -11.8049 -14.9092 -28.235 1.99853 -57.5112 0.179784 5.08945 -0.00799018 -71.0491 6.67998 -5.31044 -7.77653 -18.4825 44.3762 0.0 0.0 0.0 -10.6107 7.38555 -3.31784 -2.58801 0.097873 0.385081 39.7211 17.8737 -4.95718 -17.8285 0.0 0.0 -0.0 0.0 -0.0 28.8738 -6.92859 -1.89707 1.22939 0.0525737 0.181324 -17.2661 26.4929 -3.17358 19.8766 -0.0 -0.0 0.0 0.0 0.0 
1336.0426332 700.537 -1495.241268 -4.15570462262 74.3808379217 7.20268051177 1.39639 -0.25068 -2.84773 1.4009 -0.0690388 -2.8579 1.40482 0.464497 -2.82077 1.39371 0.0133684 -2.8587 -13.9125 11.3717 9.66728 -13.8279 15.7983 12.6984 -0.0 0.0 -0.0 9.6363 13.2796 17.8147 11.5741 -28.0458 67.3227 2.83395 -54.5265 1.46063 -9.89197 -0.451661 1.17971 -2.11509 12.1189 -8.40829 -0.0 0.0 -0.0 8.62052 -12.6464 -16.0824 -26.4709 1.43653 -57.4561 0.193028 5.46217 -0.00920797 -69.3385 6.46163 -5.29583 -8.361 -21.4895 46.0774 0.0 0.0 0.0 -11.9869 6.7308 -5.65074 -4.88857 0.170183 0.730721 39.0718 17.3637 -4.88753 -16.5559 0.0 0.0 -0.0 0.0 -0.0 27.0382 -7.69679 -1.26067 -3.07952 -0.114488 -0.458684 -19.3134 25.1406 -3.49552 20.9657 -0.0 -0.0 0.0 0.0 0.0 
1336.40286282 700.537 -1495.8758284 -3.90888199488 73.368570141 6.94575940307 1.39639 -0.25068 -2.84773 1.4009 -0.0690388 -2.8579 1.40482 0.464497 -2.82077 1.39371 0.0133684 -2.8587 -13.9125 11.3717 9.66728 -13.8279 15.7983 12.6984 -0.0 0.0 -0.0 9.6363 13.2796 17.8147 11.5741 -28.0458 67.3227 2.83395 -54.5265 1.46063 -9.89197 -0.451661 1.17971 -2.11509 12.1189 -8.40829 -0.0 0.0 -0.0 8.62052 -12.6464 -16.0824 -26.4709 1.43653 -57.4561 0.193028 5.46217 -0.00920797 -69.3385 6.46163 -5.29583 -8.361 -21.4895 46.0774 0.0 0.0 0.0 -11.9869 6.7308 -5.65074 -4.88857 0.170183 0.730721 39.0718 17.3637 -4.88753 -16.5559 0.0 0.0 -0.0 0.0 -0.0 27.0382 -7.69679 -1.26067 -3.07952 -0.114488 -0.458684 -19.3134 25.1406 -3.49552 20.9657 -0.0 -0.0 0.0 0.0 0.0 
1314.38331748 701.212 -1506.4510756 -0.905582100571 72.2331707869 4.00163846547 1.35472 -0.062259 -2.90245 1.3594 0.122479 -2.90053 1.35356 0.663374 -2.82637 1.34247 0.208873 -2.8956 -14.6229 11.7406 9.95954 -14.5573 16.4879 13.1962 -0.0 0.0 -0.0 9.39983 14.6396 17.2335 9.29625 -27.6234 68.1403 2.82033 -54.396 1.44954 -9.16877 -0.411787 1.09624 -1.83293 12.267 -6.53733 -0.0 0.0 -0.0 8.91829 -12.3374 -16.6398 -25.5136 1.11899 -57.1439 0.187548 5.30802 -0.00869367 -67.5865 6.23847 -5.27407 -8.80071 -23.9621 46.8236 0.0 0.0 0.0 -12.3969 6.51113 -5.13113 -7.98074 0.245392 1.19923 34.8489 18.3158 -4.49332 -16.4113 0.0 0.0 -0.0 0.0 -0.0 25.9172 -8.70145 -1.90838 -5.83172 -0.195803 -0.873195 -17.1861 23.0011 -3.03383 22.9708 -0.0 -0.0 0.0 0.0 0.0 
1275.95968794 711.035 -1527.92108061 3.33155596897 75.0801734488 -1.12352466139 1.2109 -0.0870916 -2.6217 1.21472 0.0798524 -2.62193 1.21152 0.575563 -2.55927 1.20242 0.164296 -2.618 -15.9341 10.938 8.26576 -15.9878 16.2121 11.5604 -0.0 0.0 -0.0 8.58632 14.8186 15.8115 3.79914 -27.0011 67.9752 2.53943 -51.5091 1.22528 -7.91222 -0.345029 0.950044 -1.11337 11.882 -2.1518 -0.0 0.0 -0.0 9.91892 -11.5848 -18.5272 -22.7148 0.969113 -57.2967 0.197645 5.592 -0.00965264 -66.8222 6.1413 -5.26243 -9.68172 -26.7763 50.9415 0.0 0.0 0.0 -11.4691 5.92278 -5.26055 -16.1267 0.32165 2.44575 30.0257 24.498 -4.09825 -13.2584 0.0 0.0 -0.0 0.0 -0.0 23.0497 -8.78821 -1.2076 -11.6763 -0.301959 -1.76338 -7.25534 15.8798 -1.18411 24.1621 -0.0 -0.0 0.0 0.0 0.0 
1257.54850177 716.389 -1537.16241216 5.49989818817 75.1960608628 -3.8172979785 0.938385 -0.0667366 -2.41047 0.941614 0.0867379 -2.40983 0.938556 0.553252 -2.34711 0.930912 0.17574 -2.40499 -16.2549 10.7324 7.30405 -16.3694 16.4247 10.6507 -0.0 0.0 -0.0 8.24647 15.0936 15.2061 1.07497 -26.7244 67.7271 2.39521 -49.8682 1.11368 -6.65218 -0.281329 0.802028 -0.761348 11.8275 0.05288 -0.0 0.0 -0.0 10.3876 -10.9363 -19.4712 -21.2548 0.81323 -57.0987 0.198672 5.62088 -0.00975298 -65.3873 5.95933 -5.23707 -10.1649 -28.7901 52.2498 0.0 0.0 0.0 -8.59917 5.45657 -5.75909 -23.0879 0.246203 3.51055 26.7669 28.0563 -3.79754 -12.5166 0.0 0.0 -0.0 0.0 -0.0 20.9888 -9.19823 -1.18783 -13.5935 -0.31694 -2.05715 -4.1719 14.0965 -0.667587 24.3436 -0.0 -0.0 0.0 0.0 0.0 
